<svg xmlns="http://www.w3.org/2000/svg" width="128" height="128" viewBox="0 0 128 128">
  <circle cx="64" cy="64" r="56" fill="#2b9c74"/>
  
  <!-- Data Flow Wave -->
  <path d="M32 64 Q48 62 56 64" stroke="#ffffff" stroke-width="2.5" stroke-linecap="round" fill="none"/>
  <path d="M72 64 Q80 66 96 64" stroke="#ffffff" stroke-width="2.5" stroke-linecap="round" fill="none"/>
  
  <!-- Shield -->
  <path d="M64 32 L40 42 L40 66 C40 86 50 94 64 104 C78 94 88 86 88 66 L88 42 L64 32" 
        fill="none" 
        stroke="#ffffff" 
        stroke-width="6"
        stroke-linejoin="round"/>
  
  <!-- Lock -->
  <rect x="58" y="67" width="12" height="10" rx="2" fill="#ffffff"/>
  <path d="M60 67 L60 64 C60 61 62 59 64 59 C66 59 68 61 68 64 L68 67" 
        fill="none"
        stroke="#ffffff"
        stroke-width="2"
        stroke-linecap="round"/>
</svg>
